#define full_tabbed_width 16
#define full_tabbed_height 16
static unsigned char full_tabbed_bits[] = {
   0x00, 0x00, 0xfe, 0x7f, 0x82, 0x40, 0xfe, 0x7f, 0x02, 0x40, 0x02, 0x40,
   0x02, 0x40, 0x02, 0x40, 0x02, 0x40, 0x02, 0x40, 0x02, 0x40, 0x02, 0x40,
   0x02, 0x40, 0x02, 0x40, 0xfe, 0x7f, 0x00, 0x00 };
