#define mirr_res_tall_width 16
#define mirr_res_tall_height 16
static unsigned char mirr_res_tall_bits[] = {
   0x00, 0x00, 0xfe, 0x7f, 0x02, 0x40, 0x02, 0x40, 0x02, 0x40, 0x02, 0x40,
   0x02, 0x40, 0xfe, 0x7f, 0x22, 0x40, 0x22, 0x40, 0x22, 0x40, 0x22, 0x40,
   0x22, 0x40, 0x22, 0x40, 0xfe, 0x7f, 0x00, 0x00 };
