#define res_tall_width 16
#define res_tall_height 16
static unsigned char res_tall_bits[] = {
   0x00, 0x00, 0xfe, 0x7f, 0x82, 0x40, 0x82, 0x40, 0x82, 0x40, 0x82, 0x40,
   0x82, 0x40, 0x82, 0x40, 0x82, 0x40, 0x82, 0x40, 0x82, 0x7f, 0x82, 0x40,
   0x82, 0x40, 0x82, 0x40, 0xfe, 0x7f, 0x00, 0x00 };
