#define tab_width 8
#define tab_height 16
static unsigned char tab_bits[] = {
   0x80, 0x80, 0x40, 0x40, 0x20, 0x20, 0x10, 0x10, 0x08, 0x08, 0x04, 0x04,
   0x02, 0x02, 0x01, 0x01 };
