#define tabbed_width 16
#define tabbed_height 16
static unsigned char tabbed_bits[] = {
   0x00, 0x00, 0xfe, 0x7f, 0x82, 0x7f, 0x82, 0x7f, 0x82, 0x40, 0x82, 0x40,
   0x82, 0x40, 0x82, 0x40, 0x82, 0x40, 0x82, 0x40, 0x82, 0x40, 0x82, 0x40,
   0x82, 0x40, 0x82, 0x40, 0xfe, 0x7f, 0x00, 0x00 };
