#define tableft_width 8
#define tableft_height 16
static unsigned char tableft_bits[] = {
   0x80, 0xc0, 0xc0, 0xe0, 0xe0, 0xf0, 0xf0, 0xf8, 0xf8, 0xfc, 0xec, 0xe6,
   0xe6, 0xec, 0xf8, 0xf0 };
