#define tabright_width 8
#define tabright_height 16
static unsigned char tabright_bits[] = {
   0x0f, 0x1f, 0x3f, 0x7f, 0x7f, 0x3f, 0x3f, 0x1f, 0x1f, 0x0f, 0x0f, 0x07,
   0x07, 0x03, 0x03, 0x01 };
